<?xml version="1.0" encoding="UTF-8"?>
<svg width="146px" height="58px" viewBox="0 0 146 58" version="1.1" xmlns="http://www.w3.org/2000/svg" xmlns:xlink="http://www.w3.org/1999/xlink">
    <!-- Generator: Sketch 43.2 (39069) - http://www.bohemiancoding.com/sketch -->
    <title>logo-action-market-research</title>
    <desc>Created with Sketch.</desc>
    <defs></defs>
    <g id="Page-1" stroke="none" stroke-width="1" fill="none" fill-rule="evenodd">
        <g id="logo-action-market-research" transform="translate(-1.000000, 0.000000)">
            <g id="shapes" transform="translate(86.077000, 0.000000)">
                <g id="ellopse-bottom" transform="translate(20.594000, 18.231000)" fill-rule="nonzero" fill="#FF4242">
                    <path d="M19.75,39.501 C8.93571231,39.501 0.169,30.7342877 0.169,19.92 C0.169,9.10571231 8.93571231,0.339 19.75,0.339 C30.5642877,0.339 39.331,9.10571231 39.331,19.92 C39.320526,30.7299463 30.5599463,39.490526 19.75,39.501 L19.75,39.501 Z M19.75,11.817 C15.2764935,11.817 11.65,15.4434935 11.65,19.917 C11.65,24.3918872 15.2776128,28.0195 19.7525,28.0195 C24.2273872,28.0195 27.855,24.3918872 27.855,19.917 C27.8550004,17.7678798 27.0009237,15.7068551 25.4807974,14.1876666 C23.9606712,12.6684781 21.8991197,11.8156734 19.75,11.817 L19.75,11.817 Z" id="ellipse-bottom-fill"></path>
                    <path d="M19.75,0.506 C27.6019165,0.505595533 34.6809077,5.23516469 37.6859863,12.4892736 C40.691065,19.7433825 39.0304179,28.0934239 33.4784175,33.6457104 C27.9264171,39.1979968 19.5764612,40.859074 12.3221975,37.854369 C5.06793382,34.8496641 0.33800001,27.7709166 0.338,19.919 C0.33910424,9.19834408 9.02934415,0.507656496 19.75,0.506 L19.75,0.506 Z M19.75,28.19 C24.3179472,28.19 28.021,24.4869472 28.021,19.919 C28.021,15.3510528 24.3179472,11.648 19.75,11.648 C15.1820528,11.648 11.479,15.3510528 11.479,19.919 C11.486707,24.483751 15.185249,28.182293 19.75,28.19 L19.75,28.19 Z M19.75,-7.10542736e-15 C8.86446358,0.00039853555 0.0315857404,8.80865519 0.000802049829,19.6941481 C-0.0299816407,30.579641 8.7529366,39.4377143 19.6382967,39.49968 C30.5236567,39.5616457 39.4068529,30.8041379 39.5,19.919 C39.5383461,14.6537687 37.475289,9.59065317 33.7680049,5.85164589 C30.0607207,2.11263861 25.0153669,0.00651696746 19.75,1.77635684e-15 L19.75,-7.10542736e-15 Z M19.75,27.684 C15.4615089,27.684 11.985,24.2074911 11.985,19.919 C11.985,15.6305089 15.4615089,12.154 19.75,12.154 C24.0384911,12.154 27.515,15.6305089 27.515,19.919 C27.4668992,24.1874083 24.0184083,27.6358992 19.75,27.684 L19.75,27.684 Z" id="ellipse-bottom-line"></path>
                </g>
                <g id="ellipse-top" fill-rule="nonzero" fill="#FF4242">
                    <circle id="ellipse-top-fill" cx="7.765" cy="7.765" r="7.596"></circle>
                    <path d="M7.765,6.48522306e-17 L7.765,-8.07117367e-16 C12.0334083,0.0481008274 15.4818992,3.49659169 15.53,7.765 C15.5355969,9.82611675 14.7192985,11.8044285 13.2618635,13.2618635 C11.8044285,14.7192985 9.82611675,15.5355969 7.765,15.53 C3.49659169,15.4818992 0.0481008274,12.0334083 7.10542736e-15,7.765 C-0.00559690843,5.70388325 0.810701532,3.72557154 2.26813654,2.26813654 C3.72557154,0.810701532 5.70388325,-0.00559690843 7.765,6.48522306e-17 Z M7.765,0.506 C3.71079971,0.462666301 0.387421278,3.71086935 0.338,7.765 C0.373842362,11.8518804 3.67811962,15.1561576 7.765,15.192 C11.8192003,15.2353337 15.1425787,11.9871307 15.192,7.933 C15.1561576,3.84611962 11.8518804,0.541842362 7.765,0.506 Z" id="ellipse-top-line"></path>
                </g>
                <path d="M1.013,11.479 L24.139,49.122" id="line-bottom" stroke="#FF4242" stroke-width="0.273"></path>
                <path d="M11.141,1.013 L49.122,20.594" id="line-top" stroke="#FF4242" stroke-width="0.273"></path>
            </g>
            <g id="text" transform="translate(0.000000, 4.220000)" fill-rule="nonzero" fill="#FFFFFF">
                <path d="M8.089,42.876 C6.90077359,42.7975485 5.73509749,43.2271803 4.882,44.058 L4.713,44.227 L4.713,43.045 L1.506,43.045 L1.506,52.836 L4.713,52.836 L4.713,47.265 L4.713,47.265 C5.61692974,46.4053765 6.84627355,45.9749605 8.089,46.083 L8.089,42.876 Z" id="Path_577"></path>
                <path d="M16.024,49.798 C15.676945,50.2810839 15.0961323,50.5391804 14.505,50.473 C13.4060705,50.5803148 12.3968095,49.8593532 12.142,48.785 L12.142,48.616 L19.232,48.616 L19.232,47.439 C19.2893128,46.1227048 18.7914939,44.8427924 17.8598507,43.9111493 C16.9282076,42.9795061 15.6482952,42.4816872 14.332,42.539 C12.9490655,42.4512927 11.5932631,42.9508389 10.5978368,43.9148548 C9.60241037,44.8788708 9.05966409,46.2179648 9.103,47.603 C9.103,50.641 11.297,52.667 14.503,52.667 C16.866,52.667 18.723,51.485 19.23,49.46 L16.024,49.46 L16.024,49.798 Z M12.141,46.928 C12.3771939,45.9141889 13.2955135,45.207564 14.336,45.239 C15.3569786,45.1603003 16.2551009,45.9085878 16.362,46.927 L16.362,47.096 L12.142,46.927 L12.141,46.928 Z" id="Path_578"></path>
                <path d="M25.313,53.004 C28.183,53.004 29.871,51.822 29.871,49.797 C29.871,48.278 28.858,47.265 26.833,46.927 L24.976,46.589 C24.301,46.42 23.794,46.251 23.794,45.745 C23.794,45.407 24.132,44.901 25.144,44.901 C26.156,44.901 26.832,45.239 26.832,46.083 L29.702,46.083 C29.702,45.239 29.027,42.876 25.144,42.876 C22.444,42.876 20.755,44.058 20.755,46.083 C20.755,47.602 21.768,48.615 23.625,48.953 L25.651,49.291 C26.495,49.46 26.664,49.797 26.664,50.135 C26.664,50.641 26.158,50.979 25.145,50.979 C24.132,50.979 23.283,50.476 23.283,49.797 L20.413,49.797 C20.751,51.823 22.439,53.004 25.313,53.004 Z" id="Path_579"></path>
                <path d="M38.137,49.798 C37.789945,50.2810839 37.2091323,50.5391804 36.618,50.473 C35.5190705,50.5803148 34.5098095,49.8593532 34.255,48.785 L34.255,48.616 L41.345,48.616 L41.345,47.439 C41.4023128,46.1227048 40.9044939,44.8427924 39.9728507,43.9111493 C39.0412076,42.9795061 37.7612952,42.4816872 36.445,42.539 C35.0620655,42.4512927 33.7062631,42.9508389 32.7108368,43.9148548 C31.7154104,44.8788708 31.1726641,46.2179648 31.216,47.603 C31.216,50.641 33.41,52.667 36.616,52.667 C38.979,52.667 40.836,51.485 41.343,49.46 L38.137,49.46 L38.137,49.798 Z M34.255,46.928 C34.4911208,45.9145671 35.408884,45.2080483 36.449,45.239 C37.4699786,45.1603003 38.3681009,45.9085878 38.475,46.927 L38.475,47.096 L34.255,46.927 L34.255,46.928 Z" id="Path_580"></path>
                <path d="M47.764,53.004 C48.7100156,53.0416768 49.6470106,52.807428 50.464,52.329 L50.633,52.329 L50.633,53.004 L53.84,53.004 L53.84,43.045 L50.629,43.045 L50.629,43.72 L50.464,43.72 C48.8963303,42.8137128 46.9640905,42.8132702 45.3960059,43.7188392 C43.8279212,44.6244081 42.8625605,46.2982149 42.864,48.109 C42.9254026,50.7885228 45.0844159,52.945333 47.764,53.004 L47.764,53.004 Z M48.439,45.239 C49.2406362,45.2181058 49.9999919,45.5979712 50.464,46.252 L50.464,46.252 L50.464,49.459 L50.464,49.459 C49.9997928,50.1133277 49.2399865,50.4932308 48.438,50.472 C47.7801662,50.4777172 47.1499788,50.207784 46.7002509,49.7276562 C46.2505229,49.2475284 46.0223277,48.6010556 46.071,47.945 C45.9833908,47.2636037 46.1919906,46.5773313 46.6439806,46.059952 C47.0959705,45.5425726 47.7480107,45.2436961 48.435,45.239 L48.439,45.239 Z" id="Path_581"></path>
                <path d="M62.613,42.876 C61.4247736,42.7975485 60.2590975,43.2271803 59.406,44.058 L59.237,44.227 L59.237,43.045 L56.03,43.045 L56.03,52.836 L59.237,52.836 L59.237,47.265 L59.237,47.265 C60.1409297,46.4053765 61.3702736,45.9749605 62.613,46.083 L62.613,42.876 Z" id="Path_582"></path>
                <path d="M71.053,48.785 C70.8173954,49.7047316 69.9749646,50.3376976 69.026,50.308 C68.3679217,50.3127051 67.7379462,50.0416052 67.2889362,49.5604824 C66.8399262,49.0793595 66.6129198,48.4321868 66.663,47.776 C66.617125,47.1358885 66.8511293,46.5073453 67.3044375,46.0530779 C67.7577458,45.5988104 68.3857929,45.3634781 69.026,45.408 C69.9734297,45.378337 70.8149062,46.0092367 71.052,46.927 L74.09,46.927 C73.7105839,44.4431036 71.5375786,42.6326949 69.026,42.708 C67.6329821,42.6432024 66.2730297,43.144883 65.2558135,44.0988058 C64.2385972,45.0527286 63.6507036,46.3776946 63.626,47.772 C63.626,50.81 65.82,52.836 69.026,52.836 C71.5597447,52.9758173 73.7706204,51.1334208 74.09,48.616 L71.053,48.616 L71.053,48.785 Z" id="Path_583"></path>
                <path d="M80.844,45.577 C82.026,45.577 82.701,46.421 82.701,47.771 L82.701,52.835 L85.908,52.835 L85.908,47.265 C85.908,44.565 84.22,42.707 81.857,42.707 C80.864665,42.7100815 79.9064647,43.069584 79.157,43.72 L78.988,43.889 L78.988,38.487 L75.78,38.487 L75.78,52.835 L78.987,52.835 L78.987,46.587 L78.987,46.587 C79.4589425,46.0312171 80.1209777,45.6711441 80.844,45.577 L80.844,45.577 Z" id="Path_584"></path>
                <path d="M14.506,28.865 L14.506,33.929 L17.713,33.929 L17.713,28.359 C17.713,25.659 16.025,23.801 13.662,23.801 C12.3478932,23.7620747 11.0723394,24.2478286 10.117,25.151 L10.117,25.151 C9.35152157,24.275814 8.23956068,23.7820156 7.077,23.801 C6.20280089,23.715204 5.33603283,24.0247902 4.714,24.645 L4.545,24.814 L4.545,24.139 L1.506,24.139 L1.506,33.93 L4.713,33.93 L4.713,27.684 L4.713,27.684 C5.09182505,27.2176379 5.63590664,26.9153306 6.232,26.84 C7.414,26.84 8.089,27.684 8.089,29.034 L8.089,34.101 L11.128,34.101 L11.128,27.852 L11.128,27.852 C11.506825,27.3856379 12.0509066,27.0833306 12.647,27.008 C13.829,26.671 14.506,27.515 14.506,28.865 Z" id="Path_585"></path>
                <path d="M24.131,34.099 C25.0770156,34.1366768 26.0140106,33.902428 26.831,33.424 L27,33.424 L27,34.099 L30.207,34.099 L30.207,24.308 L26.996,24.308 L26.996,24.983 L26.831,24.983 C25.059916,23.8543309 22.7691062,23.9674812 21.1178686,25.2651896 C19.466631,26.5628979 18.8152096,28.7620483 19.4932658,30.7497285 C20.1713219,32.7374086 22.0309268,34.0799741 24.131,34.098 L24.131,34.099 Z M24.806,26.499 C25.6081933,26.4787879 26.3676625,26.8598352 26.831,27.515 L26.831,27.515 L26.831,30.722 L26.831,30.722 C26.3667928,31.3763277 25.6069865,31.7562308 24.805,31.735 C24.1471662,31.7407172 23.5169788,31.470784 23.0672509,30.9906562 C22.6175229,30.5105284 22.3893277,29.8640556 22.438,29.208 C22.3530473,28.5271262 22.5625938,27.8423476 23.0140231,27.32561 C23.4654524,26.8088724 24.1158852,26.5092584 24.802,26.502 L24.806,26.499 Z" id="Path_586"></path>
                <path d="M38.981,23.97 C37.7927736,23.8915485 36.6270975,24.3211803 35.774,25.152 L35.605,25.321 L35.605,24.139 L32.398,24.139 L32.398,33.93 L35.605,33.93 L35.605,28.359 L35.605,28.359 C36.5089297,27.4993765 37.7382736,27.0689605 38.981,27.177 L38.981,23.97 Z" id="Path_587"></path>
                <polygon id="Path_588" points="47.59 33.929 51.3 33.929 47.252 28.021 47.252 28.021 50.966 24.138 47.252 24.138 43.707 27.852 43.707 19.581 40.5 19.581 40.5 33.929 43.707 33.929 43.707 31.904 45.057 30.385"></polygon>
                <path d="M58.225,30.892 C57.877945,31.3750839 57.2971323,31.6331804 56.706,31.567 C55.6070705,31.6743148 54.5978095,30.9533532 54.343,29.879 L54.343,29.71 L61.433,29.71 L61.433,28.533 C61.4903128,27.2167048 60.9924939,25.9367924 60.0608507,25.0051493 C59.1292076,24.0735061 57.8492952,23.5756872 56.533,23.633 C55.1500655,23.5452927 53.7942631,24.0448389 52.7988368,25.0088548 C51.8034104,25.9728708 51.2606641,27.3119648 51.304,28.697 C51.304,31.735 53.498,33.761 56.704,33.761 C59.067,33.761 60.924,32.579 61.431,30.554 L58.225,30.554 L58.225,30.892 Z M54.343,28.022 C54.5791208,27.0085671 55.496884,26.3020483 56.537,26.333 C57.5579786,26.2543003 58.4561009,27.0025878 58.563,28.021 L58.563,28.19 L54.343,28.021 L54.343,28.022 Z" id="Path_589"></path>
                <path d="M5.9,15.192 C6.84601559,15.2296768 7.78301061,14.995428 8.6,14.517 L8.769,14.517 L8.769,15.192 L11.976,15.192 L11.976,5.233 L8.6,5.233 L8.6,5.908 L8.427,5.908 C7.73975559,5.28566616 6.82329669,4.97957541 5.9,5.064 C4.57483821,5.07376556 3.30921375,5.6157578 2.38770548,6.56810838 C1.46619721,7.52045897 0.966149737,8.80323463 1,10.128 C0.966149737,11.4527654 1.46619721,12.735541 2.38770548,13.6878916 C3.30921375,14.6402422 4.57483821,15.1822344 5.9,15.192 L5.9,15.192 Z M6.575,7.592 C7.41602474,7.60581784 8.21180756,7.9753663 8.765,8.609 L8.765,8.609 L8.765,11.647 L8.765,11.647 C8.21087952,12.2816601 7.41342623,12.6513092 6.571,12.664 C5.9129217,12.6687051 5.28294616,12.3976052 4.83393617,11.9164824 C4.38492617,11.4353595 4.15791985,10.7881868 4.208,10.132 C4.09667007,9.46238677 4.30258116,8.7790378 4.76533038,8.28240977 C5.2280796,7.78578175 5.89520168,7.53218103 6.571,7.596 L6.575,7.592 Z" id="Path_590"></path>
                <path d="M20.919,9.115 L23.957,9.115 C23.577994,6.63031557 21.4042826,4.81924705 18.892,4.895 C17.4989821,4.83020236 16.1390297,5.331883 15.1218135,6.28580582 C14.1045972,7.23972864 13.5167036,8.56469464 13.492,9.959 C13.492,12.997 15.686,15.023 18.892,15.023 C21.4257447,15.1628173 23.6366204,13.3204208 23.956,10.803 L20.919,10.803 C20.6818249,11.7211385 19.8397984,12.3521391 18.892,12.322 C18.2350327,12.3263127 17.6061799,12.0557667 17.1575576,11.5758054 C16.7089354,11.0958442 16.4814033,10.4501817 16.53,9.795 C16.4841586,9.15507455 16.7180321,8.52670967 17.1711114,8.07247941 C17.6241908,7.61824915 18.2519603,7.38278224 18.892,7.427 C19.907,7.765 20.751,8.271 20.919,9.115 Z" id="Path_591"></path>
                <path d="M29.696,15.361 C30.6795127,15.4269701 31.6643477,15.2533372 32.566,14.855 L32.228,12.155 C31.6754609,12.286793 31.1077,12.3436364 30.54,12.324 C29.527,12.324 28.852,11.818 28.852,10.805 L28.852,7.933 L32.228,7.933 L32.228,5.233 L28.852,5.233 L28.852,2.194 L25.645,2.194 L25.645,10.972 C25.814,13.504 27.333,15.361 29.696,15.361 Z" id="Path_592"></path>
                <rect id="Rectangle_181" x="34.423" y="5.233" width="3.207" height="9.791"></rect>
                <path d="M57.043,7.765 C58.225,7.765 58.9,8.609 58.9,9.959 L58.9,15.023 L62.11,15.023 L62.11,9.453 C62.11,6.753 60.422,4.895 57.89,4.895 C56.897665,4.89808148 55.9394647,5.25758403 55.19,5.908 L55.021,6.077 L55.021,5.233 L51.81,5.233 L51.81,15.024 L55.017,15.024 L55.017,8.946 L55.017,8.946 C55.4675022,8.25402161 56.2188748,7.81602997 57.043,7.765 L57.043,7.765 Z" id="Path_593"></path>
                <path d="M44.889,4.895 C41.9988939,4.895 39.656,7.2378939 39.656,10.128 C39.656,13.0181061 41.9988939,15.361 44.889,15.361 C47.7791061,15.361 50.122,13.0181061 50.122,10.128 C50.1438222,8.73354675 49.5995002,7.38979597 48.6133521,6.40364789 C47.627204,5.41749981 46.2834532,4.87317781 44.889,4.895 Z M44.889,12.495 C43.6780693,12.4949955 42.6961099,11.5139247 42.6950091,10.3029945 C42.6939083,9.09206434 43.6740822,8.10920985 44.8850109,8.10700364 C46.0959396,8.10479744 47.0796884,9.08407383 47.083,10.295 C47.0648479,11.5001009 46.0940468,12.4735568 44.889,12.495 L44.889,12.495 Z" id="Path_594"></path>
                <circle id="Ellipse_491" cx="36.112" cy="2.026" r="2.026"></circle>
                <path d="M68.02,31.232 C67.007,31.232 66.332,30.726 66.332,29.713 L66.332,26.843 L69.708,26.843 L69.708,24.143 L66.327,24.143 L66.327,20.932 L63.12,20.932 L63.12,29.71 C63.12,32.242 64.639,34.099 67.002,34.099 C67.9855127,34.1649701 68.9703477,33.9913372 69.872,33.593 L69.534,30.893 C69.0718096,31.1475971 68.546629,31.2651904 68.02,31.232 L68.02,31.232 Z" id="Path_595"></path>
            </g>
        </g>
    </g>
</svg>