<?xml version="1.0" encoding="utf-8"?>
<!-- Generator: Adobe Illustrator 23.0.3, SVG Export Plug-In . SVG Version: 6.00 Build 0)  -->
<svg version="1.1" id="Layer_1" xmlns="http://www.w3.org/2000/svg" xmlns:xlink="http://www.w3.org/1999/xlink" x="0px" y="0px"
	 viewBox="0 0 434.7 170.8" style="enable-background:new 0 0 434.7 170.8;" xml:space="preserve">
<style type="text/css">
	.st0{fill:#ED1B2F;}
	.st1{fill:#231F20;}
</style>
<g>
	<g>
		<path class="st0" d="M84,89.6c-1.1-0.8-2.8-1.2-5.3-1.2h-1.3v8.3H79c2.6,0,4.4-0.3,5.3-1c0.9-0.6,1.4-1.6,1.4-2.8
			C85.6,91.6,85.1,90.4,84,89.6z M82.2,82c0.7-0.6,1.1-1.5,1.1-2.6c0-1-0.4-1.8-1.1-2.4c-0.7-0.6-1.8-0.9-3.2-0.9h-1.6v6.9h1.4
			C80.3,82.9,81.5,82.6,82.2,82z M102.6,88v8.5h11.5l15.4-36.4L57.1,29.5l-30.6,72.4l72.4,30.6l12.7-29.9h-15V70.2h17.7v6.1h-11.6
			v5.8h11.6v6H102.6z M90.2,98.2c-0.9,1.5-2.2,2.6-3.7,3.4c-1.5,0.7-3.6,1.1-6.2,1.1h-9.1V70.2h5.1c3,0,5.1,0.2,6.5,0.6
			c2,0.5,3.5,1.5,4.7,2.9c1.2,1.4,1.7,3,1.7,4.9c0,1.2-0.3,2.4-0.8,3.4c-0.5,1-1.4,2-2.5,2.8c2,0.9,3.4,2.1,4.3,3.5
			c0.9,1.4,1.4,3,1.4,4.9C91.7,95,91.2,96.7,90.2,98.2z"/>
		<g>
			<path class="st0" d="M128.8,70.2h6.2l12.5,32.5h-6.4l-2.5-6.7h-13.3l-2.6,6.7h-6.4L128.8,70.2z M131.9,78.8L127.5,90h8.8
				L131.9,78.8z"/>
			<path class="st0" d="M150.9,70.2h6.2v21c0,1.8,0.2,3.1,0.5,3.8c0.3,0.8,0.8,1.3,1.6,1.8c0.7,0.4,1.6,0.7,2.6,0.7
				c1.1,0,2-0.2,2.8-0.7c0.8-0.5,1.3-1.1,1.6-1.9c0.3-0.8,0.5-2.2,0.5-4.4V70.2h6.2v19.3c0,3.3-0.2,5.5-0.6,6.8
				c-0.4,1.3-1.1,2.5-2.1,3.7c-1,1.2-2.2,2-3.6,2.6c-1.4,0.6-2.9,0.8-4.7,0.8c-2.4,0-4.4-0.5-6.2-1.6c-1.7-1.1-3-2.4-3.7-4.1
				c-0.8-1.6-1.1-4.4-1.1-8.2V70.2z"/>
			<path class="st0" d="M182.2,70.2h5.9l7.6,22.6l7.6-22.6h6l5.4,32.5h-6l-3.5-20.5l-6.9,20.5h-5.5l-6.8-20.5l-3.6,20.5h-6
				L182.2,70.2z"/>
			<path class="st0" d="M233.8,69.4c4.6,0,8.5,1.7,11.8,5c3.3,3.3,5,7.4,5,12.1c0,4.7-1.6,8.7-4.9,12c-3.3,3.3-7.2,4.9-11.9,4.9
				c-4.9,0-8.9-1.7-12.1-5c-3.2-3.4-4.8-7.4-4.8-12c0-3.1,0.8-5.9,2.3-8.5c1.5-2.6,3.6-4.7,6.2-6.2C228,70.1,230.8,69.4,233.8,69.4z
				 M233.8,75.4c-3,0-5.5,1-7.6,3.1c-2.1,2.1-3.1,4.7-3.1,7.9c0,3.6,1.3,6.4,3.9,8.5c2,1.6,4.3,2.4,6.9,2.4c2.9,0,5.4-1.1,7.5-3.2
				c2.1-2.1,3.1-4.7,3.1-7.8c0-3.1-1-5.7-3.1-7.8C239.3,76.5,236.7,75.4,233.8,75.4z"/>
			<path class="st0" d="M255.4,70.2h5.8l14.1,21.4V70.2h6.1v32.5h-5.9l-14-21.3v21.3h-6.1V70.2z"/>
			<path class="st0" d="M284.5,70.2h17.9v6.1h-5.9v26.4h-6.3V76.3h-5.7V70.2z"/>
		</g>
		<g>
			<path class="st1" d="M313.9,70.2h17.9v6.1h-5.9v26.4h-6.3V76.3h-5.7V70.2z"/>
			<path class="st1" d="M334.6,70.2h6.1v32.5h-6.1V70.2z"/>
			<path class="st1" d="M346.5,70.2h6.1v26.6h9.1v5.9h-15.2V70.2z"/>
			<path class="st1" d="M365.3,70.2h17.7v6.1h-11.6v5.8h11.6v6h-11.6v8.5h11.6v6.1h-17.7V70.2z"/>
			<path class="st1" d="M404.7,74.6l-4.6,4c-1.6-2.2-3.2-3.3-4.9-3.3c-0.8,0-1.5,0.2-2,0.6c-0.5,0.4-0.8,0.9-0.8,1.5
				c0,0.5,0.2,1.1,0.6,1.5c0.5,0.6,2,2,4.5,4.2c2.4,2,3.8,3.2,4.3,3.7c1.3,1.3,2.1,2.5,2.7,3.6c0.5,1.2,0.8,2.4,0.8,3.8
				c0,2.7-0.9,4.9-2.8,6.6c-1.8,1.7-4.2,2.6-7.2,2.6c-2.3,0-4.3-0.6-6-1.7c-1.7-1.1-3.2-2.9-4.4-5.4l5.2-3.1
				c1.6,2.9,3.4,4.3,5.4,4.3c1.1,0,2-0.3,2.7-0.9c0.7-0.6,1.1-1.3,1.1-2.1c0-0.7-0.3-1.5-0.8-2.2c-0.5-0.7-1.7-1.9-3.6-3.4
				c-3.5-2.9-5.8-5.1-6.9-6.7c-1-1.6-1.5-3.1-1.5-4.7c0-2.2,0.9-4.2,2.6-5.8c1.7-1.6,3.8-2.4,6.4-2.4c1.6,0,3.2,0.4,4.6,1.1
				C401.4,71.3,403,72.6,404.7,74.6z"/>
		</g>
	</g>
</g>
</svg>
