<?xml version="1.0" encoding="UTF-8" standalone="no"?>
<svg xmlns="http://www.w3.org/2000/svg" height="70px" width="70px" version="1.1" xmlns:xlink="http://www.w3.org/1999/xlink" viewBox="32 28 70 70">
 <g id="Symbol" fill-rule="evenodd" transform="translate(32 28)">
  <polygon id="Fill-1" points="0 41.562 20.781 41.562 20.781 27.344 0 27.344" fill="#A51F6E"/>
  <polygon id="Fill-2" points="49.219 41.562 70 41.562 70 27.344 49.219 27.344" fill="#FFAA90"/>
  <polygon id="Fill-3" points="38.281 31.719 55.781 31.719 55.781 14.219 38.281 14.219" fill="#FFAA90"/>
  <polygon id="Fill-4" points="14.219 35 35 35 35 14.219 14.219 14.219" fill="#FF8964"/>
  <polygon id="Fill-5" points="41.562 41.562 55.781 41.562 55.781 27.344 41.562 27.344" fill="#FF8964"/>
  <polygon id="Fill-6" points="27.344 35 41.562 35 41.562 14.219 27.344 14.219" fill="#FF8964"/>
  <polygon id="Fill-7" points="20.781 41.562 41.562 41.562 41.562 27.344 20.781 27.344" fill="#FF3650"/>
  <polygon id="Fill-8" points="27.344 62.344 41.562 62.344 41.562 38.281 27.344 38.281" fill="#A51F6E"/>
  <polygon id="Fill-9" points="14.219 48.125 28.438 48.125 28.438 27.344 14.219 27.344" fill="#FF3650"/>
  <polygon id="Fill-10" points="27.344 17.5 41.562 17.5 41.562 0 27.344 0" fill="#FFAA90"/>
  <polygon id="Fill-11" points="41.562 55.781 55.781 55.781 55.781 41.562 41.562 41.562" fill="#FF3650"/>
  <polygon id="Fill-12" points="14.219 55.781 35 55.781 35 41.562 14.219 41.562" fill="#A51F6E"/>
  <polygon id="Fill-13" points="41.562 49.219 48.125 49.219 48.125 35 41.562 35" fill="#FF3650"/>
  <polygon id="Fill-14" points="27.344 20.781 47.031 20.781 47.031 14.219 27.344 14.219" fill="#FFAA90"/>
  <polygon id="Fill-15" points="34.453 27.344 34.453 34.453 27.344 34.453 27.344 41.562 34.453 41.562 38.008 41.562 41.562 41.562 41.562 38.008 41.562 34.453 41.562 27.344" fill="#fff"/>
  <polygon id="Fill-16" points="27.344 55.781 48.125 55.781 48.125 49.219 27.344 49.219" fill="#FF3650"/>
  <polygon id="Fill-17" points="27.344 70 41.562 70 41.562 55.781 27.344 55.781" fill="#A51F6E"/>
 </g>
</svg>
